<?xml version="1.0" encoding="UTF-8"?>
<svg id="Layer_2" data-name="Layer 2" xmlns="http://www.w3.org/2000/svg" xmlns:xlink="http://www.w3.org/1999/xlink" viewBox="0 0 416.2 416.2">
  <defs>
    <style>
      .cls-1 {
        fill: #000;
      }

      .cls-1, .cls-2, .cls-3, .cls-4 {
        stroke-width: 0px;
      }

      .cls-2 {
        fill: none;
      }

      .cls-3 {
        fill: url(#New_Pattern_Swatch_3);
      }

      .cls-4 {
        fill: #fff;
      }
    </style>
    <pattern id="New_Pattern_Swatch_3" data-name="New Pattern Swatch 3" x="0" y="0" width="40" height="104" patternTransform="translate(-517.5 -16265.6) scale(1 -1)" patternUnits="userSpaceOnUse" viewBox="0 0 40 104">
      <g>
        <rect class="cls-2" width="40" height="104"/>
        <g>
          <polygon class="cls-2" points="0 104 40 104 40 0 0 0 0 104"/>
          <polygon class="cls-1" points="40 104 20 104 40 69.4 40 104"/>
          <polygon class="cls-1" points="0 104 0 69.4 20 104 0 104"/>
          <polygon class="cls-4" points="0 69.3 0 52 20 86.7 40 52.1 40 69.4 20 104 0 69.3"/>
          <polygon class="cls-1" points="0 52 0 17.4 20 52 40 17.4 40 52 20 86.7 0 52"/>
          <polygon class="cls-4" points="0 17.3 0 0 20 34.7 40 .1 40 17.4 20 52 0 17.3"/>
          <polygon class="cls-1" points="0 0 0 0 40 0 40 0 20 34.7 0 0"/>
        </g>
      </g>
    </pattern>
  </defs>
  <g id="Layer_1-2" data-name="Layer 1">
    <rect class="cls-3" width="416.2" height="416.2"/>
  </g>
</svg>