<?xml version="1.0" encoding="UTF-8"?>
<svg id="Layer_2" data-name="Layer 2" xmlns="http://www.w3.org/2000/svg" viewBox="0 0 2020.97 769.09">
  <defs>
    <style>
      .cls-1 {
        fill: #85a89b;
        fill-rule: evenodd;
        stroke-width: 0px;
      }
    </style>
  </defs>
  <g id="Layer_1-2" data-name="Layer 1">
    <g>
      <path class="cls-1" d="M1432.18,339.5c5.99-6.56,12.26-10.65,19.69-15.26,5.06-3.17,10.7-3.45,15.74-6.73,4.38-2.86,9.77-4.96,15.13-3.64,4.37,1.05,8.4,4.52,12.51,6.4,8.33,3.82,17.9-2.76,26.8-2.18,7.03.43,12.92.61,18.6,4.79,3.14,2.34,5.19,3.5,8.95,4.46,1.85.48,2.82-.27,3.83,1.65-11.96-1.42-25.76,2.64-24.01,17.24.57,4.71,1.91,8.7,1.85,13.6-.11,7.24-2.36,11.08-6.36,17.09-3.04,4.58-5.36,10.04-8.49,14.42-1.41,1.95-3.39,3.19-4.67,5.31-1.79,2.96-1.91,6.35-2.98,9.58-1.4,4.14-4.18,7.66-5.29,11.91-1.15,4.38.1,8.83-.78,13.23-5.91.88-12.3-16.21-12.13-20.92.2-6.63,1.8-13.06,1.76-19.81,0-2.32.99-7.34,0-9.46-.97-2.02-3.46-2.84-4.48-5.33-2.78-6.77,2.5-11.79,2.86-18.27.2-3.87-1.69-4.42-3.42-7.52-2.92-5.21.66-10.52-.49-15.91-2.97.85-5.02,3.34-7.9,4.37-3.6,1.31-9.91,2.22-13.7,2.52-3.59.31-7.8-.1-11.23-1.29-3.93-1.38-6.91-5.35-11.17-5.55l-10.62,5.3"/>
      <path class="cls-1" d="M26.21,465.31c5.28-2.31,8.35-5.85,12.64-9.41,7.94-6.56,15-10.82,24.86-13.99,29.41-9.47,40.85.73,63.64.11-3.46,7.02-28.36,14.63-36.52,17.91-4.45,1.79-4.81,3.3-6.52,7.22-3.75,8.65-20.61,31.29-31.37,26.03-3.46-1.69.06-6.77-.08-10.25-3.2,3.19-7.04,9.36-12.29,6.36-6.77-3.87-.76-12.03-4.26-16.85-7.31-10.1-15.28,12.04-36.33-7.69,13.81-.25,12.36,6.65,26.21.56"/>
      <path class="cls-1" d="M1635.11,232.71c10.45-2.49,32.9-7.88,41.7-.92,7.52,5.96,27.48,9.38,28.9,19.29-3.54,1.53-7.22-3.06-10.88-3.47-9.74-1.04-6.34-.27-12.01,3.05-19.8,11.12-61.75,18.14-80.37,4.27-10.45-7.57-30.49.72-39.19-.02-3.44-.31-5.86-2.26-9.35-2.09,2.5-5.7,5.92-10.33,11.21-13.77,3.63-2.36,11.27-3.49,13.92-6.91,2.92-3.72.47-12.49.52-16.81.03-9.81,2.05-19.18,3.27-28.86.69-5.43-.05-6.02-5.15-5.15-13.63,2.25-44.5-.8-52.1-12.82,3.94-1.2,8.95-.37,13.06-.35,17.05.06,34.01-1.82,50.42-1.79,9.39,0,27.05-1.48,34.99-.21,5.88.95,10.66,5.48,16.21,7.14,4.56,1.35,20.28,3.75,20.99-2.05.76,20.93-3.8,32.1-26.14,61.47"/>
      <path class="cls-1" d="M1897.59,323.46c9.16.31,18.62-4.57,24.13-3.76,4.45.66,9.91,3.09,13.31,6,4.88,4.24,7.82,7.18,14.46,8.22,20.78,3.17,32.32-10.27,43.58-10.6,7.49-.19,7.1-1.06,12.99-1.89,5.18-.72,9.79,2.47,14.92,1.75-8.42-5.31-16.46-9.3-26.56-9.79-6.54-.34-14.48.8-18.74-5.37-7.39-10.66,2.02-28.25,4.92-39.11-15.74-2.89-13.77-7.45-33.41-7.38-6.56.02-13.18.2-19.75-.06-9.31-.37-9.33-3.96-15.1-5.13,3.28,11.02,12.4,10.34,16.58,14.38-5.78,6.93-.35,14.65,1.44,22.61,1.32,5.92,2.33,15.24.64,21.15-2.72.06-3.95-2.63-6.42-3.11-3.13-.58-5.88.97-8.51,2.4-11.9,6.41-7.72,4.72-20.24,2.6l1.76,7.09"/>
      <path class="cls-1" d="M667,388.02c6.73,3.02,13.19,9.16,16.92,15.51-2.01-2.76-10.23-5.04-13.93-5.88-4.53-1.05-5.47.47-9.26,2.14-18.69,8.31-21.05,15.22-46.18,10.61-21.01-3.75-23.34-2.93-41.97,3.76-7.98-10.71,13.23-13.43,19.83-15.57,12.01-3.88,9.28-13.78,11.9-23.98,1.37-5.39,6.33-12.26,4.62-18-1.77-5.97-9.4-5.97-14.46-5.74-7.55.35-15.86,3.21-19.95-5.1,3.25-2.92,2.61-5.97,4.3-9.54,2.73-5.85,10.39-5.54,15.96-6.09,14.07-1.42,32.63-10.25,45.03.49,12.09,10.47-6.77,22.01-6.21,34.17,1.78,38.47,15.9,15.38,33.4,23.22"/>
      <path class="cls-1" d="M493.05,633.79c8.97-3.46,14.55-4.18,23.72-2.76,6.58,1.03,8.64,1.96,12.28,7.24,8.72,12.7,23.08,20.21,26.33,36.29,2.12-5.47,3.81-10.36,3.27-16.4-.54-6.12-3.76-10.26-3.56-16.35.16-5.04-.96-8.41-4.42-12.48-6.21-7.32-8.6-3.07-11.07-5.76,6.6-.04,10.99,4.5,17.12,5.55,8.76,1.48,3.04-7.75-.91-10.14-7.08-4.34-17.65-4.83-25.75-4.49-8.83.42-14.87,6.55-21.07,12.22l-15.94,7.08"/>
      <path class="cls-1" d="M770.36,321.02c10.61-9.11,11.16-2.1,24.79-1.54,3.45.14,14.46.99,16.7.82,2.98-.24,26.6-7.29,27.08-7.61-3.83-3.82-10.11-7.42-15.6-7.65-5.53-.25-8.1-1.64-11.97-1.97-4.38-7.29,2.41-24.48-7.44-27.98-4.14-1.48-10.04.27-14.4-.04-5.99-.43-10.12-2.68-15.39-5.2-3.11,8.22,9.99,11.5,13.86,15.44,2.61,2.7,1.81,6.46,1.81,9.86-.04,3.88,2.92,9.87,1.57,13.3-7.07.55-18.86,6.11-21.01,12.57"/>
      <path class="cls-1" d="M131.45,619.68c3.68-.1,8.15-1.01,11.69-1.7,1.93-.4,3.72-1.63,5.67-1.75,8.65-.54,23.05,4.63,29.05-4.08,3.81-5.54,10.78-12.46,18.39-11.99-5.8.49-11.19-2.96-17.18-1.62-3.1.71-10.71.82-12.56,2.73-.42-4.94-.89-10.8-5.72-13.41-2.88-1.55-6.67-1.58-9.79-2.49-7.02-2.02-16.67-16.41-19.13-2.86-1.61,8.76,6.7,24.89-2.74,30.57-4.76,2.85-10.92,2.88-15.76,5.72-3.9,2.26-6.37,3.94-8.68,9.69,13.75-7.9,12.15-8.4,26.76-8.81"/>
      <path class="cls-1" d="M1147.04,443.77c7.95-.02,11.83-1.31,17.92-5.79,3.4-2.54,5.59-6.18,9.39-8.33,8.02-4.55,16.46-1.86,23.47,3.63-23.47-.84-11.08,23.93-18.98,37.38-1.71,2.9-5.6,8.48-9.63,8.17-4.38-.33-4.49-5.97-4.73-9.3-.95-13.04-1.36-20.9-15.67-23.99l-1.77-1.77"/>
      <path class="cls-1" d="M1300.7,740.19c-.04,2.89-2.26,7.85-1.71,10.44.82,3.87,2.82,2.61,5.6,1.03,2.98-1.69,5.48-2.42,8.78-3.5-2.02,6.46-8.8,8.69-14.6,10.25-4.22,1.13-3.09,1.73-5.08,5.27-2.6,4.6-6.67,3.8-11.42,3.02-4.37-.72-7.98-1.26-12.32-.33-2.35.51-8.52,3.66-10.78,2.45-4.32-2.33,1.36-12.06-2.02-16.62.83,2.38,9.51,1.56,11.47.45,3.2-1.79,8.61-9.92,9.51-13.47,1.38-5.45-.63-10.39,3.75-14.94,14.07-14.67,19.16-4.93,18.82,15.95"/>
      <path class="cls-1" d="M921.59,425.88c4.19-3.57,5.06-6.76,5.55-12.05,6.13,4.48,2.04,16.58-.64,22.01-1.44,2.92-4.05,4.77-5.53,7.73-1.52,3.07-.51,5.56-1.42,8.59-3.45,3.85-34.87,2.56-34.51-4.7.35-.12.71-.24,1.06-.35,5.56,9.28,21.72-9.42,35.49-21.23"/>
      <path class="cls-1" d="M895.39,724.58c7.49-.88,14.14-3.56,21.54-3.49,4.54.04,8.23-1.69,12.61-1.88,4.21-.18,8.64-.76,12.66-1.52,3.71-.72,7.11-2.92,10.75-3.64,1.48-.29,3.19.41,4.55-.04,1.54-.52,2.18-1.87,3.52-2.51,1.74-.82,3.57-.6,5.26-1.21,1.42-.54,2.1-1.55,3.46-2.19,3.12-1.46,6.83-3.12,10.16-4.15,4.28-1.34,6.38,1.35,10.61,1.03-5.7-5.49-11.74-10.93-20.01-11.46-4.51-.29-12.08,2.9-16.09.17-4.2-2.87-2.8-10.82-2.71-15.06.12-5.6-.11-10.43-3.26-15.23-3.9-5.98-8.86-11.47-13.14-17.19-2.82-3.77-8.76-13.93-14.77-12.18-6.21,1.81-6.43,13.2-6.05,18.12.6,7.78,4.08,13.97,9.02,19.81-1.79,4.9-6.3,6.79-5.45,12.9.77,5.49,5.3,9.91,5.87,15.57.58,5.6-5.03,6.03-8.14,9.81-3.83,4.65-8.19,10.27-15.08,9.04l-5.31,5.3"/>
      <path class="cls-1" d="M1394.53,39.13c2.06-7.8,6.44-8.07,12.3-12.12,5.16-3.56,11.61-3.64,17.41-5.54,2.42-.78,4.83-2.11,7.46-1.82,2.45.24,4.53,1.77,7.04,1.99,3.76.33,6.48-.2,9.23-1.79,3.03-1.74,6.16-3.8,9.33-5.68,4.02-2.36,7.75-2.69,12.09-3.24,2.24-.27,4.13-1.15,6.35-1.53,3.77-.59,6.61,1.75,10.07,2.62,5.53,1.35,9.6.45,14.35,4.23-10.04.1-23.43,1.36-29.68,10.5-7.78,11.37,8.31,24.14,14.17,32.41,10.53,14.88,8.58,30.11,7.53,47.32-.58,9.23-.27,18.4.12,27.64.27,6.38,2.16,17.49-2.3,22.96-10.8,13.22-29.62-23.29-32.01-29.81-2.96-8.08-4.34-16.51-3.95-25.11.29-6.18,1.42-12.12-.26-18.21-1.9-6.91-15.16-32.5-25.1-27.34-5.39,2.79-4.85,15.02-5.1,19.87-.23,4.79-.25,9.57-.45,14.36-.11,2.57.49,8.91-1.36,11.05-3.7,4.23-8.62-9.3-9.83-11.81-4.41-9.26-8.17-19.99-15.1-27.73-10.53-11.75-24.91,2.12-34.6,8.5-5.5-3.75-4.38-8.71-.72-13.42,2.14-2.71,2.63-3.12,5.59-4.33,2.49-1.03,5.19-2.06,7.65-3.19,5.07-2.33,8.4-4.9,12.66-8.58,2.75-2.37,9.81-5.35,8.88-9.28l-1.77,7.08"/>
      <path class="cls-1" d="M1359.95,501.89c3.86.25,6.77-1.26,10.35-1.42,6.88-.35,16.91,3.36,23.28,5.56,5.55,1.95,11.51,3.57,16.72,6.26,5.69,2.91,9.64,5.56,14.22,10.22-4.25-1.09-8.61-.98-12.97-.91-2.94.05-7.51-.97-10.26.05-.18.06-26.83,14.72-28.2,15.45-5.9,3.12-15.95,1.73-22.42.67-6.35-1.03-13.01-2.15-19.03-4.42-11.72-4.48-27.27-6.45-39.2-2.21-3.91,1.4-9.91,2.47-12.84,5.5-2.16-5.54-4.47-11.72.1-16.68,5.46-5.89,15.13-7.95,22.17-11.29,7.3-3.47,14.35-8.09,17.28-15.99,2.83-7.71,1.82-16.58,1.48-24.6-.46-10.82-.74-21.63-.43-32.45.16-5.47-1-19.64,4.45-23.36,5.67-3.86,13.93,8.43,16.55,11.82,7.21,9.41,13.8,19.87,18.23,30.9,6.05,15.01,1.95,31.14,3.34,46.9h-2.82"/>
      <path class="cls-1" d="M1763.65,413.38c-.03-5.76,1.77-13.04-.38-18.57-2.22-5.81-7.27-4.05-12.09-2.26-55.97,20.81-29.92,48.39-92.26,56.54,1.48,6.35,49.76,1.29,73.87,9.8,17.45,6.09,48.45,2.59,64.04-4.1,14.33-7.22,15.7,3.8,18.38,3.59,8.61-32.15-51.56-8.08-51.56-45"/>
      <path class="cls-1" d="M404.09,469.35c8.21-11.37,26.47-16.57,34.73-26.27,13.4-15.78,19.05-8.34,29.83-5.88-7.81,4.92-24.06,21.07-5.37,24.19,2.25.63,11.65-3.76,20.48,7.26-5.84,3.35-16.9,2.33-23.42,2.98-5.86.6-11.66,1.83-17.53,2.27-26.72,1.94-24.88-14.93-38.72-4.55"/>
      <path class="cls-1" d="M215.09,454.5c8.18-2.26,18.08-2.81,25.22-4.8,21.97-6.04,23.6-8.06,45.44-2.12,5.39,1.49,9.49,2.74,15.13,2.52,2.27-.09,5.57-.93,6.7,1.68-5.15,2.92-9.36,4.57-14.75,6.3-4.39,1.42-3.91,3.41-2.47,7.22,2.05,5.45,4.4,11.29,7.34,16.35,3.21,5.51,8.25,9.81,10.86,15.7,12.12,27.15,3.15,41.57,7.43,53.11,1.29,3.54,1.57,6.99,1.46,10.75-14.15-9.68-37.44-44.46-48.55-61.17-3.5-5.25-7.07-10.72-12.99-13.43-1.8-.72-9.6,24.3-10.68,27.65-.83,2.56-2.37,9.52-6.05,9.71-3.76.16-5.8-6.81-6.7-9.39-18.83-68.83,26.54-40.49-45.26-43.65.46-.51,27.49-16.33,27.87-16.43"/>
      <path class="cls-1" d="M1307.81,284.2c4.17,1.25,9.64,1.59,13.45,3.48-12.63,6.72-24.21,12.16-38.77,11.95-8.69-.13-17.39-1.03-26.03-1.75-4.08-.35-22.43.08-25.5-3.2-2.84-3.05,15.35-4.02,18.46-6,6.22-3.95,3.38-7.55,8.73-12.71,7.97-7.69,12.11-18.74,4.71-28.35-2.97-3.84-7.22-6.41-11.6-8.33-3.22-1.42-9.91-2.1-12.39-4.57-2.45-2.4-.72-2.79,2.45-4.07,6.47-2.61,13.97-3.88,20.86-4.89,13.28-1.91,25.05-1.22,25.96,14.39.73,12.99.16,24.81,3.8,37.49-6.69,6.68,5.52,3.43,15.87,6.56"/>
      <path class="cls-1" d="M1101.77,276.13c4.51,2.45,7.43,4.57,13.03,5.09,4.79.45,8.61-.95,13.07,1.76-10.96-1.13-19.76,6.52-28.62,11.09-5.46,2.82-10.44,6.87-16.13,9.07-6.94,2.7-14.61,5.04-22,5.97-8.12,1.02-17.87,2.57-25.85.43-7.29-1.97-11.66-7.26-19.58-7.34-8.01-.09-16.04.06-24.05.04-6.42-.02-9.59,1.79-15.22,3.52,3.45-6.18,8.21-10,14.74-12.7,6.58-2.71,15.01-2.39,21.22-5.53,3.78-1.94,2.48-3.54,1.25-7.22-1.62-4.94-2.49-9.94-3.42-15.04-1.33-7.34-2.48-18.96-6.66-25.26-4.52-6.79-15.16-3.99-21.97-3.39,8.83-6.32,17.07-13.42,26.04-19.51,9.25-6.25,19.2-13.1,30.9-11.39,8,1.17,15.3,5.26,21.62,10.18,5.3,4.14,10.24,10.64,16.85,12.76,5.36,1.72,10.53-.83,15.94-.33,5.88.55,8.35,5.18,10.49,10.14-9.98-3.35-25.46-.8-28.06,11.48-1.17,5.57,2,10.71.66,16.45-.45,1.85-2.14,4.49-.78,6.32,7.41,9.95,4.39-8.56,26.53,3.41"/>
      <path class="cls-1" d="M754.84,141.23c11.08-1.38,48.67,12.02,62,17.04,5.74,2.18,11.06,4.03,17.28,4.47,7.73.55,15.45,1.09,22.19-3.17,7.45-4.65,15.74-7.86,24.05-10.61,14.23-4.71,26.33-8.03,40.55-.8-17.85-8.75-32.53-23.15-53.65-21.65-6.63.48-18.66,4.96-24.5.15-5.37-4.45-3.46-15.23-2.2-21.04,1.56-7.21,4.72-12.1,10.3-16.75,6.11-5.1,10.74-10.35,9.76-18.91-1.51-13.03-12.16-24.48-19.88-34.37-8.83-11.31-16.56-22.87-23.22-35.59-4.41,6.03-5.82,12.45-5.77,19.78.05,3.59-.61,7.13.85,10.53,1.25,2.9,5,5.08,4.3,8.66-3.71-.04-6.07-2.6-10.2-1.51-1.34,4.26.18,7.74,2.34,11.36,1.81,3.02,7.08,8.66,5.7,12.22-3.21.1-6.62.26-6.89,3.99-.23,2.92,4.06,6.29,3.29,9.07-1.22,4.48-10.94,2.57-13.72,7.96-2.51,4.88-1.95,12.82-1.77,18.12.14,4.86,1.83,12.26-2.16,16.15-3.69,3.58-9.44,2.12-13.31,6.32-4.41,4.77-4.52,8.27-11.33,9.58-7.6,1.46-12.21,2.31-19.84,3.59-16.27,1.44-39.74-8.31-38.64,2.18,1.12,10.76,25.27.83,44.47,3.23"/>
    </g>
  </g>
</svg>