<?xml version="1.0" encoding="UTF-8"?>
<svg id="Layer_2" data-name="Layer 2" xmlns="http://www.w3.org/2000/svg" xmlns:xlink="http://www.w3.org/1999/xlink" viewBox="0 0 416.2 416.2">
  <defs>
    <style>
      .cls-1 {
        fill: #85a89b;
      }

      .cls-1, .cls-2, .cls-3 {
        stroke-width: 0px;
      }

      .cls-2 {
        fill: none;
      }

      .cls-3 {
        fill: url(#_10_dpi_40_);
      }
    </style>
    <pattern id="_10_dpi_40_" data-name="10 dpi 40%" x="0" y="0" width="28.8" height="28.8" patternTransform="translate(-978.8 -16622.9) scale(1 -1)" patternUnits="userSpaceOnUse" viewBox="0 0 28.8 28.8">
      <g>
        <rect class="cls-2" width="28.8" height="28.8"/>
        <g>
          <polygon class="cls-2" points="0 28.8 28.8 28.8 28.8 0 0 0 0 28.8"/>
          <g>
            <path class="cls-1" d="M28.8-2.9C30.4-2.9,31.7-1.6,31.7,0s-1.3,2.9-2.9,2.9S25.9,1.6,25.9,0c0-1.6,1.3-2.9,2.9-2.9Z"/>
            <path class="cls-1" d="M14.4-2.9C16-2.9,17.3-1.6,17.3,0s-1.3,2.9-2.9,2.9S11.5,1.6,11.5,0s1.3-2.9,2.9-2.9Z"/>
            <path class="cls-1" d="M28.8,11.5c1.6,0,2.9,1.3,2.9,2.9s-1.3,2.9-2.9,2.9-2.9-1.3-2.9-2.9,1.3-2.9,2.9-2.9Z"/>
            <path class="cls-1" d="M14.4,11.5c1.6,0,2.9,1.3,2.9,2.9s-1.3,2.9-2.9,2.9-2.9-1.3-2.9-2.9,1.3-2.9,2.9-2.9Z"/>
            <path class="cls-1" d="M7.2,4.3c1.6,0,2.9,1.3,2.9,2.9s-1.3,2.9-2.9,2.9-2.9-1.3-2.9-2.9c0-1.6,1.3-2.9,2.9-2.9Z"/>
            <path class="cls-1" d="M21.6,4.3c1.6,0,2.9,1.3,2.9,2.9s-1.3,2.9-2.9,2.9-2.9-1.3-2.9-2.9,1.3-2.9,2.9-2.9Z"/>
            <path class="cls-1" d="M7.2,18.7c1.6,0,2.9,1.3,2.9,2.9s-1.3,2.9-2.9,2.9-2.9-1.3-2.9-2.9c0-1.6,1.3-2.9,2.9-2.9Z"/>
            <path class="cls-1" d="M21.6,18.7c1.6,0,2.9,1.3,2.9,2.9s-1.3,2.9-2.9,2.9-2.9-1.3-2.9-2.9,1.3-2.9,2.9-2.9Z"/>
          </g>
          <g>
            <path class="cls-1" d="M0-2.9C1.6-2.9,2.9-1.6,2.9,0S1.6,2.9,0,2.9-2.9,1.6-2.9,0-1.6-2.9,0-2.9Z"/>
            <path class="cls-1" d="M0,11.5c1.6,0,2.9,1.3,2.9,2.9S1.6,17.3,0,17.3s-2.9-1.3-2.9-2.9S-1.6,11.5,0,11.5Z"/>
          </g>
          <g>
            <path class="cls-1" d="M28.8,25.9c1.6,0,2.9,1.3,2.9,2.9s-1.3,2.9-2.9,2.9-2.9-1.3-2.9-2.9c0-1.6,1.3-2.9,2.9-2.9Z"/>
            <path class="cls-1" d="M14.4,25.9c1.6,0,2.9,1.3,2.9,2.9s-1.3,2.9-2.9,2.9-2.9-1.3-2.9-2.9,1.3-2.9,2.9-2.9Z"/>
          </g>
          <path class="cls-1" d="M0,25.9c1.6,0,2.9,1.3,2.9,2.9S1.6,31.7,0,31.7s-2.9-1.3-2.9-2.9S-1.6,25.9,0,25.9Z"/>
        </g>
      </g>
    </pattern>
  </defs>
  <g id="Layer_1-2" data-name="Layer 1">
    <rect class="cls-3" width="416.2" height="416.2"/>
  </g>
</svg>