<?xml version="1.0" encoding="UTF-8"?>
<svg id="Layer_2" data-name="Layer 2" xmlns="http://www.w3.org/2000/svg" viewBox="0 0 1048.37 716.11">
  <defs>
    <style>
      .cls-1 {
        font-size: 45px;
      }

      .cls-1, .cls-2, .cls-3 {
        fill: #231f20;
        font-family: Marydale-Bold, Marydale;
        font-weight: 700;
      }

      .cls-2 {
        font-size: 120px;
      }

      .cls-3 {
        font-size: 63px;
      }
    </style>
  </defs>
  <g id="Layer_3" data-name="Layer 3">
    <text class="cls-2" transform="translate(116.85 594.39) rotate(-60.83)"><tspan x="0" y="0">7</tspan></text>
    <text class="cls-2" transform="translate(146.18 540.19) rotate(-45.6)"><tspan x="0" y="0">4</tspan></text>
    <text class="cls-3" transform="translate(191.97 495.78) rotate(-35.72)"><tspan x="0" y="0"> </tspan></text>
    <text class="cls-1" transform="translate(210.8 482.34) rotate(-31.57)"><tspan x="0" y="0">t</tspan></text>
    <text class="cls-1" transform="translate(224.28 474.03) rotate(-28.66)"><tspan x="0" y="0">u</tspan></text>
    <text class="cls-1" transform="translate(237.31 466.85) rotate(-25.73)"><tspan x="0" y="0">r</tspan></text>
    <text class="cls-1" transform="translate(251.58 459.86) rotate(-22.85)"><tspan x="0" y="0">e</tspan></text>
    <text class="cls-1" transform="translate(270.82 451.78) rotate(-20.05)"><tspan x="0" y="0">r</tspan></text>
    <text class="cls-1" transform="translate(287.5 445.69) rotate(-17.83)"><tspan x="0" y="0"> </tspan></text>
    <text class="cls-1" transform="translate(303.44 440.48) rotate(-15.56)"><tspan x="0" y="0">ti</tspan></text>
    <text class="cls-1" transform="translate(326.95 434.05) rotate(-13.94)"><tspan x="0" y="0">l</tspan></text>
    <text class="cls-1" transform="translate(336.54 431.63) rotate(-12.82)"><tspan x="0" y="0"> </tspan></text>
    <text class="cls-1" transform="translate(353.11 427.79) rotate(-11.29)"><tspan x="0" y="0">m</tspan></text>
    <text class="cls-1" transform="translate(380.5 422.39) rotate(-10.13)"><tspan x="0" y="0">å</tspan></text>
    <text class="cls-1" transform="translate(396.76 419.48) rotate(-9.48)"><tspan x="0" y="0">n</tspan></text>
    <text class="cls-1" transform="translate(413.61 416.66) rotate(-8.98)"><tspan x="0" y="0">e</tspan></text>
    <text class="cls-1" transform="translate(435.14 413.27) rotate(-8.72)"><tspan x="0" y="0">n</tspan></text>
    <text class="cls-1" transform="translate(452.18 410.67) rotate(-8.73)"><tspan x="0" y="0"> </tspan></text>
    <text class="cls-1" transform="translate(469.42 408.03) rotate(-9)"><tspan x="0" y="0">o</tspan></text>
    <text class="cls-1" transform="translate(485.81 405.44) rotate(-9.49)"><tspan x="0" y="0">g</tspan></text>
    <text class="cls-1" transform="translate(510.22 401.34) rotate(-10.15)"><tspan x="0" y="0" xml:space="preserve"> t</tspan></text>
    <text class="cls-1" transform="translate(528.14 398.15) rotate(-10.88)"><tspan x="0" y="0">i</tspan></text>
    <text class="cls-1" transform="translate(553.26 393.28) rotate(-11.54)"><tspan x="0" y="0">l</tspan></text>
    <text class="cls-1" transform="translate(563.82 391.14) rotate(-12.11)"><tspan x="0" y="0">b</tspan></text>
    <text class="cls-1" transform="translate(580.27 387.61) rotate(-12.81)"><tspan x="0" y="0">a</tspan></text>
    <text class="cls-1" transform="translate(597.48 383.74) rotate(-13.85)"><tspan x="0" y="0">k</tspan></text>
    <text class="cls-1" transform="translate(622.66 377.52) rotate(-15.04)"><tspan x="0" y="0">e</tspan></text>
  </g>
</svg>