<?xml version="1.0" encoding="UTF-8"?>
<svg id="Layer_2" data-name="Layer 2" xmlns="http://www.w3.org/2000/svg" viewBox="0 0 186.46 63.71">
  <defs>
    <style>
      .cls-1 {
        font-size: 14px;
      }

      .cls-1, .cls-2 {
        fill: #000;
        font-family: Marydale-Bold, Marydale;
        font-weight: 700;
      }

      .cls-2 {
        font-size: 24px;
      }
    </style>
  </defs>
  <g id="Layer_1-2" data-name="Layer 1">
    <text class="cls-2" transform="translate(14.35 54.54) rotate(-41.04)"><tspan x="0" y="0">7</tspan></text>
    <text class="cls-2" transform="translate(23.86 46.21) rotate(-30.95)"><tspan x="0" y="0">4</tspan></text>
    <text class="cls-1" transform="translate(35.11 39.7) rotate(-24.53)"><tspan x="0" y="0"> </tspan></text>
    <text class="cls-1" transform="translate(39.87 37.52) rotate(-21.02)"><tspan x="0" y="0">t</tspan></text>
    <text class="cls-1" transform="translate(44.58 35.71) rotate(-18)"><tspan x="0" y="0">u</tspan></text>
    <text class="cls-1" transform="translate(49.07 34.23) rotate(-14.91)"><tspan x="0" y="0">r</tspan></text>
    <text class="cls-1" transform="translate(53.94 32.9) rotate(-11.75)"><tspan x="0" y="0">e</tspan></text>
    <text class="cls-1" transform="translate(60.42 31.59) rotate(-8.97)"><tspan x="0" y="0">r</tspan></text>
    <text class="cls-1" transform="translate(66.04 30.73) rotate(-7.65)"><tspan x="0" y="0"> </tspan></text>
    <text class="cls-1" transform="translate(71.37 30.01) rotate(-6.8)"><tspan x="0" y="0">ti</tspan></text>
    <text class="cls-1" transform="translate(79.06 29.1) rotate(-6.13)"><tspan x="0" y="0">l</tspan></text>
    <text class="cls-1" transform="translate(82.19 28.76) rotate(-5.63)"><tspan x="0" y="0"> </tspan></text>
    <text class="cls-1" transform="translate(87.56 28.22) rotate(-4.87)"><tspan x="0" y="0">m</tspan></text>
    <text class="cls-1" transform="translate(96.32 27.49) rotate(-4.2)"><tspan x="0" y="0">å</tspan></text>
    <text class="cls-1" transform="translate(101.47 27.11) rotate(-3.77)"><tspan x="0" y="0">n</tspan></text>
    <text class="cls-1" transform="translate(106.83 26.76) rotate(-3.36)"><tspan x="0" y="0">e</tspan></text>
    <text class="cls-1" transform="translate(113.59 26.36) rotate(-3.07)"><tspan x="0" y="0">n</tspan></text>
    <text class="cls-1" transform="translate(118.94 26.07) rotate(-2.93)"><tspan x="0" y="0"> </tspan></text>
    <text class="cls-1" transform="translate(124.4 25.8) rotate(-2.91)"><tspan x="0" y="0">o</tspan></text>
    <text class="cls-1" transform="translate(129.58 25.54) rotate(-3.08)"><tspan x="0" y="0">g</tspan></text>
    <text class="cls-1" transform="translate(137.12 25.13) rotate(-3.54)"><tspan x="0" y="0" xml:space="preserve"> t</tspan></text>
    <text class="cls-1" transform="translate(142.52 24.8) rotate(-4.33)"><tspan x="0" y="0">i</tspan></text>
    <text class="cls-1" transform="translate(150.47 24.18) rotate(-5.34)"><tspan x="0" y="0">l</tspan></text>
    <text class="cls-1" transform="translate(153.83 23.88) rotate(-6.39)"><tspan x="0" y="0">b</tspan></text>
    <text class="cls-1" transform="translate(159.07 23.3) rotate(-8.01)"><tspan x="0" y="0">a</tspan></text>
    <text class="cls-1" transform="translate(164.46 22.56) rotate(-9.01)"><tspan x="0" y="0">k</tspan></text>
    <text class="cls-1" transform="translate(172.43 21.3) rotate(-10.93)"><tspan x="0" y="0">e</tspan></text>
  </g>
</svg>