<?xml version="1.0" encoding="UTF-8"?>
<svg id="Layer_2" data-name="Layer 2" xmlns="http://www.w3.org/2000/svg" viewBox="0 0 771.25 449.38">
  <defs>
    <style>
      .cls-1 {
        font-size: 45px;
      }

      .cls-1, .cls-2, .cls-3 {
        fill: #231f20;
        font-family: Marydale-Bold, Marydale;
        font-weight: 700;
      }

      .cls-2 {
        font-size: 120px;
      }

      .cls-3 {
        font-size: 63px;
      }
    </style>
  </defs>
  <g id="Layer_3" data-name="Layer 3">
    <text class="cls-2" transform="translate(117.16 327.66) rotate(-60.83)"><tspan x="0" y="0">7</tspan></text>
    <text class="cls-2" transform="translate(146.5 273.46) rotate(-45.6)"><tspan x="0" y="0">4</tspan></text>
    <text class="cls-3" transform="translate(192.28 229.05) rotate(-35.72)"><tspan x="0" y="0"> </tspan></text>
    <text class="cls-1" transform="translate(211.11 215.61) rotate(-31.57)"><tspan x="0" y="0">t</tspan></text>
    <text class="cls-1" transform="translate(224.59 207.3) rotate(-28.66)"><tspan x="0" y="0">u</tspan></text>
    <text class="cls-1" transform="translate(237.62 200.12) rotate(-25.73)"><tspan x="0" y="0">r</tspan></text>
    <text class="cls-1" transform="translate(251.89 193.13) rotate(-22.85)"><tspan x="0" y="0">e</tspan></text>
    <text class="cls-1" transform="translate(271.13 185.05) rotate(-20.05)"><tspan x="0" y="0">r</tspan></text>
    <text class="cls-1" transform="translate(287.82 178.96) rotate(-17.83)"><tspan x="0" y="0"> </tspan></text>
    <text class="cls-1" transform="translate(303.75 173.75) rotate(-15.56)"><tspan x="0" y="0">ti</tspan></text>
    <text class="cls-1" transform="translate(327.26 167.31) rotate(-13.94)"><tspan x="0" y="0">l</tspan></text>
    <text class="cls-1" transform="translate(336.85 164.89) rotate(-12.82)"><tspan x="0" y="0"> </tspan></text>
    <text class="cls-1" transform="translate(353.42 161.05) rotate(-11.29)"><tspan x="0" y="0">m</tspan></text>
    <text class="cls-1" transform="translate(380.81 155.65) rotate(-10.13)"><tspan x="0" y="0">å</tspan></text>
    <text class="cls-1" transform="translate(397.07 152.75) rotate(-9.48)"><tspan x="0" y="0">n</tspan></text>
    <text class="cls-1" transform="translate(413.92 149.93) rotate(-8.98)"><tspan x="0" y="0">e</tspan></text>
    <text class="cls-1" transform="translate(435.45 146.54) rotate(-8.73)"><tspan x="0" y="0">n</tspan></text>
    <text class="cls-1" transform="translate(452.49 143.93) rotate(-8.73)"><tspan x="0" y="0"> </tspan></text>
    <text class="cls-1" transform="translate(469.78 141.28) rotate(-8.95)"><tspan x="0" y="0">o</tspan></text>
    <text class="cls-1" transform="translate(486.15 138.72) rotate(-9.38)"><tspan x="0" y="0">g</tspan></text>
    <text class="cls-1" transform="translate(510.6 134.66) rotate(-10.1)"><tspan x="0" y="0" xml:space="preserve"> t</tspan></text>
    <text class="cls-1" transform="translate(528.73 131.46) rotate(-11.06)"><tspan x="0" y="0">i</tspan></text>
    <text class="cls-1" transform="translate(554.12 126.43) rotate(-12.08)"><tspan x="0" y="0">l</tspan></text>
    <text class="cls-1" transform="translate(564.99 124.13) rotate(-13.05)"><tspan x="0" y="0">b</tspan></text>
    <text class="cls-1" transform="translate(581.93 120.2) rotate(-14.35)"><tspan x="0" y="0">a</tspan></text>
    <text class="cls-1" transform="translate(599.93 115.66) rotate(-16.39)"><tspan x="0" y="0">k</tspan></text>
    <text class="cls-1" transform="translate(625.84 107.99) rotate(-18.78)"><tspan x="0" y="0">e</tspan></text>
  </g>
</svg>