<?xml version="1.0" encoding="UTF-8"?>
<svg id="Layer_2" data-name="Layer 2" xmlns="http://www.w3.org/2000/svg" viewBox="0 0 226.57 108.78">
  <defs>
    <style>
      .cls-1 {
        font-size: 35.62px;
      }

      .cls-1, .cls-2, .cls-3 {
        fill: #000;
        font-family: Marydale-Bold, Marydale;
        font-weight: 700;
      }

      .cls-2 {
        font-size: 13.85px;
      }

      .cls-3 {
        font-size: 14px;
      }
    </style>
  </defs>
  <g id="Layer_1-2" data-name="Layer 1">
    <text class="cls-1" transform="translate(27.62 89.63) rotate(-42.52) scale(1.08 1)"><tspan x="0" y="0">7</tspan></text>
    <text class="cls-1" transform="translate(42.45 75.8) rotate(-30.79) scale(1.08 1)"><tspan x="0" y="0">4</tspan></text>
    <text class="cls-3" transform="translate(60.49 65.63) rotate(-22.19) scale(1.08 1)"><tspan x="0" y="0"> </tspan></text>
    <text class="cls-2" transform="translate(65.56 63.55) rotate(-18.1) scale(1.08 1)"><tspan x="0" y="0">t</tspan></text>
    <text class="cls-2" transform="translate(70.51 61.91) rotate(-14.23) scale(1.08 1)"><tspan x="0" y="0">u</tspan></text>
    <text class="cls-2" transform="translate(75.48 60.69) rotate(-12.35) scale(1.08 1)"><tspan x="0" y="0">r</tspan></text>
    <text class="cls-2" transform="translate(80.93 59.48) rotate(-11.62) scale(1.08 1)"><tspan x="0" y="0">e</tspan></text>
    <text class="cls-2" transform="translate(87.96 58.04) rotate(-10.77) scale(1.08 1)"><tspan x="0" y="0">r</tspan></text>
    <text class="cls-2" transform="translate(93.95 56.9) rotate(-9.96) scale(1.08 1)"><tspan x="0" y="0"> </tspan></text>
    <text class="cls-2" transform="translate(99.59 55.9) rotate(-8.93) scale(1.08 1)"><tspan x="0" y="0">ti</tspan></text>
    <text class="cls-2" transform="translate(107.73 54.64) rotate(-8.02) scale(1.08 1)"><tspan x="0" y="0">l</tspan></text>
    <text class="cls-2" transform="translate(111.05 54.16) rotate(-7.28) scale(1.08 1)"><tspan x="0" y="0"> </tspan></text>
    <text class="cls-2" transform="translate(116.7 53.42) rotate(-6.04) scale(1.08 1)"><tspan x="0" y="0">m</tspan></text>
    <text class="cls-2" transform="translate(125.98 52.46) rotate(-4.88) scale(1.08 1)"><tspan x="0" y="0">å</tspan></text>
    <text class="cls-2" transform="translate(131.46 51.99) rotate(-4.13) scale(1.08 1)"><tspan x="0" y="0">n</tspan></text>
    <text class="cls-2" transform="translate(137.15 51.58) rotate(-3.58) scale(1.08 1)"><tspan x="0" y="0">e</tspan></text>
    <text class="cls-2" transform="translate(144.39 51.14) rotate(-3.7) scale(1.08 1)"><tspan x="0" y="0">n</tspan></text>
    <text class="cls-2" transform="translate(150.36 50.77) rotate(-4.55) scale(1.08 1)"><tspan x="0" y="0"> </tspan></text>
    <text class="cls-2" transform="translate(156.68 50.28) rotate(-6.47) scale(1.08 1)"><tspan x="0" y="0">o</tspan></text>
    <text class="cls-2" transform="translate(163.2 49.56) rotate(-10.11) scale(1.08 1)"><tspan x="0" y="0">g</tspan></text>
    <text class="cls-2" transform="translate(172.47 47.76) rotate(-15.17) scale(1.08 1)"><tspan x="0" y="0" xml:space="preserve"> t</tspan></text>
    <text class="cls-2" transform="translate(178.63 46.06) rotate(-17.17) scale(1.08 1)"><tspan x="0" y="0">i</tspan></text>
    <text class="cls-2" transform="translate(186.76 43.52) rotate(-17.93) scale(1.08 1)"><tspan x="0" y="0">l</tspan></text>
    <text class="cls-2" transform="translate(190.03 42.47) rotate(-18.32) scale(1.08 1)"><tspan x="0" y="0">b</tspan></text>
    <text class="cls-2" transform="translate(195.11 40.78) rotate(-18.66) scale(1.08 1)"><tspan x="0" y="0">a</tspan></text>
    <text class="cls-2" transform="translate(200.38 39.01) rotate(-19.02) scale(1.08 1)"><tspan x="0" y="0">k</tspan></text>
    <text class="cls-2" transform="translate(208.15 36.33) rotate(-19.32) scale(1.08 1)"><tspan x="0" y="0">e</tspan></text>
  </g>
</svg>